# xmcd
#
# Track frame offsets:
#	150
#	21470
#	45855
#	67250
#	85630
#	106717
#	127537
#	145827
#	168885
#	193000
#	216202
#	239237
#	260452
#
# Disc length: 3753 seconds
#
# Revision: 1
# Processed by: cddbd v1.5.1PL0 Copyright (c) Steve Scherf et al.
# Submitted via: CDex 1.50Beta5
#
DISCID=af0ea70d
DTITLE=Various Artist - NEW MUSIC BEST COLLECTION 12
DYEAR=1900
DGENRE=エイジ
TTITLE0=辛島美登里/サイレント・イブ
TTITLE1=大事MANブラザーズバンド/それが大事
TTITLE2=岡村孝子/夢をあきらめないで
TTITLE3=井上大輔/言葉がヘタだから
TTITLE4=遠藤京子/愛を与えられないまま
TTITLE5=吉田栄作/心の旅
TTITLE6=森川由加里/SHOW ME
TTITLE7=稲垣潤一/君に逢いたい午後
TTITLE8=SING LIKE TALKING/La La La
TTITLE9=陣内大蔵/好奇心〜CHANCE CREATOR〜
TTITLE10=麗美/Everlasting Love
TTITLE11=ブレッド&バター/奇跡のヴィーナス
TTITLE12=LORAN/明日が輝く場所へ
EXTD=
EXTT0=
EXTT1=
EXTT2=
EXTT3=
EXTT4=
EXTT5=
EXTT6=
EXTT7=
EXTT8=
EXTT9=
EXTT10=
EXTT11=
EXTT12=
PLAYORDER=
